<svg viewBox="0 0 1760 512" xmlns="http://www.w3.org/2000/svg" fill-rule="evenodd" clip-rule="evenodd" stroke-linejoin="round" stroke-miterlimit="1.414"><path fill="none" d="M0 0h1760v512H0z"/><path d="M1094.5 381.413c.547 19.736 11.51 39.47 42.226 39.47 23.586 0 37.3-11.512 37.3-29.054 0-51.533-139.195-35.087-139.195-133.764 0-51.49 37.773-82.69 96.962-82.69 65.765 0 95.872 40.504 99.157 94.737h-62.405c-1.097-23-12.068-37.238-36.755-37.265-20.295 0-32.91 10.416-32.91 25.766 0 46.598 139.74 28.507 139.74 133.215 0 52.59-37.224 88.17-100.248 88.17-70.696 0-107.377-45.98-108.473-98.587h64.6zm-285.217-.57c-5.478 61.932-44.345 98.06-107.924 98.06-63.027 0-101.347-41.602-101.347-111.775v-81.62c0-69.626 38.32-110.132 101.894-110.132 64.673 0 103.54 40.506 103.54 110.13v64.616H664.61v17.006c0 34.56 13.712 49.92 37.846 49.92 26.876 0 36.75-10.972 41.68-36.206h65.147zm673.05 0c-5.478 61.932-44.345 98.06-107.924 98.06-63.026 0-101.347-41.602-101.347-111.775v-81.62c0-69.626 38.32-110.132 101.895-110.132 64.673 0 103.54 40.506 103.54 110.13v64.616H1337.66v17.006c0 34.56 13.712 49.92 37.846 49.92 26.877 0 36.75-10.972 41.68-36.206h65.148zM505.9 182.5h50.417v58.57H505.9v134.313c0 27.41 11.508 40.02 36.716 40.02H560.7v60.76h-21.92c-60.25 0-96.93-38.864-96.93-101.328V241.07h-38.907v-19.686c0-21.475 17.41-38.883 38.884-38.884h.024v-5.012c0-16.984 6.748-33.272 18.757-45.28 12.01-12.01 28.297-18.757 45.28-18.757h.013v69.05zM361.377 472.328H296.78V247.096c0-35.675 28.92-64.596 64.597-64.596v289.828zm556.076 0h-64.597v-246.05c0-11.61 4.613-22.745 12.823-30.955 8.21-8.21 19.344-12.823 30.955-12.823h.016l5.475 31.742c15.328-24.633 40.536-38.318 73.965-38.318 12.604 0 23.016 1.642 31.236 5.48v62.405c-10.412-4.385-21.92-7.125-35.62-7.125-33.43 0-54.253 18.632-54.253 55.39v180.253zm724.86-296.952c-31.815 0-55.4 13.685-70.18 38.318l-5.475-31.194h-.016c-11.61 0-22.746 4.613-30.956 12.823s-12.823 19.345-12.822 30.956v246.048h64.596v-181.39c0-35.073 15.358-53.705 39.493-53.705 22.49 0 34.008 15.892 34.008 56.992v178.103h64.598V292.58c0-78.886-31.203-117.204-83.246-117.204zm-1498-86.585c60.28 0 101.34 42.152 101.34 106.825 0 32.905-13.14 63.045-35.024 80.015 30.657 15.327 48.724 47.1 48.724 84.39 0 68.515-45.44 112.308-111.75 112.308H31.998v-318.67c0-17.203 6.833-33.703 18.998-45.868 12.165-12.165 28.664-19 45.87-19h47.444zm-7.685 220.78H99.335v99.257h37.84c35.1 0 53.198-16.45 53.198-48.806 0-33.45-19.743-50.45-53.745-50.45zm604.77-5.412v-19.2c0-34.01-13.71-49.37-38.942-49.37-24.134 0-37.847 15.36-37.847 49.37v19.2h76.79zm673.052 0v-19.2c0-34.01-13.712-49.37-38.944-49.37-24.134 0-37.846 15.36-37.846 49.37v19.2h76.79zM133.89 152.29H99.334v94.327h36.75c27.424 0 41.136-17 41.136-48.26 0-30.71-13.712-46.066-43.33-46.066zm208.275-24.862c0 21.084-17.088 38.175-38.184 38.175-21.073 0-38.163-17.09-38.163-38.175 0-21.084 17.09-38.174 38.164-38.174 21.097 0 38.185 17.09 38.185 38.174zM361.255 32c-21.095 0-38.183 17.09-38.183 38.174 0 21.086 17.088 38.175 38.183 38.175 21.075 0 38.164-17.09 38.164-38.176C399.42 49.09 382.33 32 361.254 32zm0 62.028c-13.175 0-23.873-10.676-23.873-23.854 0-13.176 10.698-23.857 23.873-23.857 13.18 0 23.858 10.68 23.858 23.857 0 13.178-10.677 23.854-23.858 23.854z" fill="#ff003f"/></svg>